<svg width="177" height="41" viewBox="0 0 177 41" fill="none" xmlns="http://www.w3.org/2000/svg">
<path d="M30.8458 13.744C30.8458 17.1448 29.7223 19.3944 27.4753 20.4928C28.4065 20.8192 29.2562 21.3301 29.9695 21.9925C30.7622 22.6767 31.3911 23.5184 31.8127 24.4596C32.2343 25.4008 32.4385 26.4189 32.4112 27.4435C32.4112 34.5095 27.0796 38.0425 16.4164 38.0425C11.2234 38.0425 7.62194 37.1917 5.61214 35.4901C4.2265 34.2884 3.53492 32.4858 3.53742 30.0824V9.24477C3.53742 7.24273 4.50612 5.87638 6.44352 5.14574C8.38092 4.4151 11.9124 4.0654 17.0381 4.09665C26.2432 4.09665 30.8458 7.31242 30.8458 13.744ZM17.0793 12.6444C16.5924 12.6444 15.9183 12.6769 15.0532 12.7454V19.1445C15.7503 18.9026 16.4619 18.7016 17.1841 18.5424C18.0155 18.3441 18.5847 18.1819 18.8956 18.0954C19.8668 17.694 20.3524 16.8432 20.3524 15.5429C20.3549 13.6106 19.2638 12.6444 17.0793 12.6444ZM15.057 29.7507C16.0238 30.0511 17.0377 30.1866 18.0529 30.1509C20.4098 30.1509 21.587 29.3001 21.5845 27.5985C21.5845 25.8007 20.4947 24.8009 18.3151 24.599C17.2171 24.5029 16.1101 24.5882 15.042 24.8514L15.057 29.7507Z" fill="black"/>
<path d="M64.3634 29.4912C65.1598 30.0247 65.558 31.0414 65.558 32.5411C65.558 34.3389 65.1261 35.5886 64.2623 36.2904C63.2549 37.1232 61.4573 37.5414 58.8583 37.5414H50.4096C47.0841 37.5414 44.7472 37.0247 43.399 35.9912C42.2555 35.1572 41.6838 33.857 41.6838 32.0905V7.9361C41.6793 7.46792 41.7843 7.00477 41.9911 6.581C42.1979 6.15724 42.5012 5.78374 42.8784 5.48822C43.6721 4.87571 44.6668 4.5561 45.6834 4.58694H62.8729C63.8715 5.45457 64.3709 6.85457 64.3709 8.78691C64.3035 10.6207 63.929 11.8873 63.2474 12.5867C62.4984 13.3558 61.0965 13.7392 59.0418 13.7368H52.9899V17.8538H62.6519C64.1724 17.8538 64.9339 18.987 64.9364 21.2534C64.9364 22.7868 64.5032 23.8684 63.6369 24.4981C62.7381 25.1686 61.25 25.5027 59.1728 25.5003H52.9899V29.4984L64.3634 29.4912Z" fill="black"/>
<path d="M96.9784 29.502C97.7723 30.0356 98.173 31.0522 98.173 32.5519C98.173 34.3497 97.7398 35.5995 96.8735 36.3013C95.8748 37.1353 94.0747 37.5523 91.4732 37.5523H82.9909C79.6678 37.5523 77.331 37.0355 75.9803 36.002C74.8393 35.1681 74.2688 33.8678 74.2688 32.1013V7.94694C74.2643 7.47876 74.3693 7.01561 74.5761 6.59184C74.7829 6.16808 75.0862 5.79458 75.4635 5.49907C76.2569 4.88627 77.2517 4.56663 78.2684 4.59778H95.4579C96.4566 5.46542 96.9559 6.86541 96.9559 8.79776C96.886 10.6316 96.5052 11.8982 95.8137 12.5976C95.0497 13.3643 93.6466 13.7476 91.6043 13.7476H85.6123V17.8538H95.2706C96.7961 17.8538 97.5576 18.987 97.5551 21.2535C97.5551 22.7869 97.1232 23.8684 96.2593 24.4981C95.3555 25.1686 93.8663 25.5027 91.7916 25.5003H85.6123V29.4984L96.9784 29.502Z" fill="black"/>
<path d="M135.9 34.6934C135.9 36.6907 133.909 37.6905 129.927 37.6929C125.944 37.6953 123.936 36.6955 123.901 34.6934V7.65495C123.901 5.7178 125.875 4.75643 129.822 4.77085C133.874 4.77085 135.9 5.73222 135.9 7.65495V34.6934Z" fill="black"/>
<path d="M165.006 14.2487V35.0467C165.006 37.0439 163.016 38.0437 159.036 38.0461C155.019 38.0461 153.011 37.0463 153.011 35.0467V14.2487H149.464C146.488 14.2487 144.999 12.666 144.996 9.50074C144.996 7.63328 145.496 6.16599 146.494 5.09888H168.826C171.56 5.09888 172.926 6.68273 172.926 9.85044C172.926 12.0135 172.269 13.4796 170.953 14.2487H165.006Z" fill="black"/>
</svg>
