<svg id="Layer_1" data-name="Layer 1" xmlns="http://www.w3.org/2000/svg" xmlns:xlink="http://www.w3.org/1999/xlink" viewBox="0 0 547.4 224.68"><defs><style>.cls-1{fill:url(#linear-gradient);}.cls-2{fill:url(#linear-gradient-2);}.cls-3{fill:url(#linear-gradient-3);}.cls-4{fill:url(#linear-gradient-4);}.cls-5{fill:url(#linear-gradient-5);}</style><linearGradient id="linear-gradient" x1="89.64" y1="47.8" x2="95.94" y2="195.82" gradientUnits="userSpaceOnUse"><stop offset="0" stop-color="#fff"/><stop offset="0.14" stop-color="#fbfbfb"/><stop offset="0.26" stop-color="#f0f0f0"/><stop offset="0.39" stop-color="#ddd"/><stop offset="0.51" stop-color="#c3c3c3"/><stop offset="0.63" stop-color="#a1a1a1"/><stop offset="0.74" stop-color="#777"/><stop offset="0.86" stop-color="#464646"/><stop offset="0.97" stop-color="#0e0e0e"/><stop offset="1"/></linearGradient><linearGradient id="linear-gradient-2" x1="184.25" y1="43.77" x2="190.54" y2="191.8" xlink:href="#linear-gradient"/><linearGradient id="linear-gradient-3" x1="271.17" y1="40.07" x2="277.47" y2="188.1" xlink:href="#linear-gradient"/><linearGradient id="linear-gradient-4" x1="388.89" y1="35.06" x2="395.19" y2="183.09" xlink:href="#linear-gradient"/><linearGradient id="linear-gradient-5" x1="467.72" y1="31.71" x2="474.02" y2="179.74" xlink:href="#linear-gradient"/></defs><path class="cls-1" d="M127.76,93.6q0,14.15-9,18.72a18.91,18.91,0,0,1,6.66,4.16,19.63,19.63,0,0,1,6.52,15.12q0,29.4-42.71,29.4-20.8,0-28.85-7.08-5.55-5-5.54-15V81.12q0-8.33,7.76-11.37t28.29-2.91Q127.76,66.84,127.76,93.6ZM91,90.55c-1.3,0-3.1.09-5.41.28v17.75a49.08,49.08,0,0,1,5.69-1.67c2.22-.55,3.74-1,4.57-1.24q3.89-1.67,3.89-7.08Q99.75,90.55,91,90.55ZM85.6,138a23.28,23.28,0,0,0,8,1.11q9.44,0,9.43-7.08,0-7.48-8.73-8.32a25.82,25.82,0,0,0-8.74.7Z"/><path class="cls-2" d="M217.26,137.28q3.19,2.22,3.19,8.46,0,7.48-3.46,10.4c-2.69,2.31-7.49,3.47-14.43,3.47H180q-13.32,0-18.72-4.3-4.58-3.47-4.58-10.82v-67a8.65,8.65,0,0,1,3.19-6.79,11.4,11.4,0,0,1,7.49-2.5h45.9q4,3.61,4,11.65-.27,7.63-3,10.54-3,3.2-11.23,3.19H186.89V105h25.8q6.09,0,6.1,9.43,0,6.38-3.47,9-3.6,2.79-11.92,2.78H186.89v11.09Z"/><path class="cls-3" d="M304.35,137.31c2.12,1.48,3.19,4.3,3.19,8.46q0,7.48-3.47,10.4-4,3.47-14.42,3.47H267q-13.31,0-18.72-4.3-4.57-3.47-4.57-10.82v-67a8.65,8.65,0,0,1,3.19-6.79,11.39,11.39,0,0,1,7.49-2.5h45.9q4,3.61,4,11.65-.28,7.63-3.05,10.54-3.06,3.19-11.24,3.19H274V105h25.79q6.11,0,6.1,9.43,0,6.38-3.46,9-3.62,2.79-11.93,2.78H274v11.09Z"/><path class="cls-4" d="M408.28,151.71q0,8.31-15.95,8.32t-16.09-8.32v-75q0-8.06,15.81-8,16.23,0,16.23,8Z"/><path class="cls-5" d="M486,95v57.69q0,8.31-15.94,8.32-16.09,0-16.09-8.32V95H444.5q-11.92,0-11.93-13.17,0-7.77,4-12.21h59.63q10.95,0,10.95,13.18,0,9-5.27,12.2Z"/></svg>